<?xml version="1.0" encoding="iso-8859-1"?>
<!-- Generator: Adobe Illustrator 24.1.2, SVG Export Plug-In . SVG Version: 6.00 Build 0)  -->
<svg version="1.1" baseProfile="basic" id="Layer_1"
	 xmlns="http://www.w3.org/2000/svg" xmlns:xlink="http://www.w3.org/1999/xlink" x="0px" y="0px" viewBox="0 0 50 50"
	 xml:space="preserve">
<g>
	<path d="M39,4H11c-3.866,0-7,3.134-7,7v28c0,3.866,3.134,7,7,7h28c3.866,0,7-3.134,7-7V11C46,7.134,42.866,4,39,4z M29.978,37
		l-6.54-9.292L15.5,37H13l9.308-10.897L13.086,13h7.937l5.637,8.009L33.5,13H36l-8.211,9.613L37.914,37H29.978z"/>
	<polygon points="16.914,15 31.022,35 34.086,35 19.978,15 	"/>
</g>
</svg>